<mxfile host="Electron" modified="2023-09-18T07:03:36.706Z" agent="Mozilla/5.0 (Windows NT 10.0; Win64; x64) AppleWebKit/537.36 (KHTML, like Gecko) draw.io/21.7.5 Chrome/114.0.5735.289 Electron/25.8.1 Safari/537.36" etag="RF-fj0toiBuyFB4sWxLz" version="21.7.5" type="device">
  <diagram id="rsjsF6zi6vzoJ9IkjaV0" name="Page-1">
    <mxGraphModel dx="780" dy="542" grid="1" gridSize="10" guides="1" tooltips="1" connect="1" arrows="1" fold="1" page="1" pageScale="1" pageWidth="850" pageHeight="1100" math="0" shadow="0">
      <root>
        <mxCell id="0" />
        <mxCell id="1" parent="0" />
        <mxCell id="inJxUU8ugUfXPObye8tp-20" value="" style="edgeStyle=orthogonalEdgeStyle;rounded=0;orthogonalLoop=1;jettySize=auto;html=1;" edge="1" parent="1" source="CtBXvL98oYvKJmt0qFco-9" target="CtBXvL98oYvKJmt0qFco-11">
          <mxGeometry relative="1" as="geometry" />
        </mxCell>
        <mxCell id="CtBXvL98oYvKJmt0qFco-9" value="keliling = 2*phi*r&lt;br style=&quot;font-size: 12px;&quot;&gt;luas = phi*r *r" style="whiteSpace=wrap;html=1;fontFamily=Times New Roman;fontSize=12;" parent="1" vertex="1">
          <mxGeometry x="433" y="170" width="135" height="80" as="geometry" />
        </mxCell>
        <mxCell id="CtBXvL98oYvKJmt0qFco-19" value="" style="edgeStyle=orthogonalEdgeStyle;rounded=0;orthogonalLoop=1;jettySize=auto;html=1;" parent="1" source="CtBXvL98oYvKJmt0qFco-11" target="CtBXvL98oYvKJmt0qFco-17" edge="1">
          <mxGeometry relative="1" as="geometry" />
        </mxCell>
        <mxCell id="CtBXvL98oYvKJmt0qFco-11" value="keliling&lt;br style=&quot;font-size: 12px;&quot;&gt;luas" style="shape=parallelogram;perimeter=parallelogramPerimeter;whiteSpace=wrap;html=1;fixedSize=1;fontFamily=Times New Roman;fontSize=12;" parent="1" vertex="1">
          <mxGeometry x="440" y="300" width="120" height="60" as="geometry" />
        </mxCell>
        <mxCell id="CtBXvL98oYvKJmt0qFco-17" value="end" style="ellipse;whiteSpace=wrap;html=1;fontFamily=Times New Roman;fontSize=12;" parent="1" vertex="1">
          <mxGeometry x="450" y="410" width="100" height="50" as="geometry" />
        </mxCell>
        <mxCell id="inJxUU8ugUfXPObye8tp-7" value="" style="edgeStyle=orthogonalEdgeStyle;rounded=0;orthogonalLoop=1;jettySize=auto;html=1;" edge="1" parent="1" source="inJxUU8ugUfXPObye8tp-8" target="inJxUU8ugUfXPObye8tp-10">
          <mxGeometry relative="1" as="geometry" />
        </mxCell>
        <mxCell id="inJxUU8ugUfXPObye8tp-8" value="start" style="ellipse;whiteSpace=wrap;html=1;fontFamily=Times New Roman;fontSize=12;" vertex="1" parent="1">
          <mxGeometry x="160" y="80" width="100" height="50" as="geometry" />
        </mxCell>
        <mxCell id="inJxUU8ugUfXPObye8tp-9" value="" style="edgeStyle=orthogonalEdgeStyle;rounded=0;orthogonalLoop=1;jettySize=auto;html=1;fontFamily=Times New Roman;fontSize=12;" edge="1" parent="1" source="inJxUU8ugUfXPObye8tp-10" target="inJxUU8ugUfXPObye8tp-12">
          <mxGeometry relative="1" as="geometry" />
        </mxCell>
        <mxCell id="inJxUU8ugUfXPObye8tp-10" value="int r&lt;br style=&quot;border-color: var(--border-color); font-size: 12px;&quot;&gt;&lt;span style=&quot;font-size: 12px;&quot;&gt;double keliling. luas&lt;/span&gt;&lt;br style=&quot;border-color: var(--border-color); font-size: 12px;&quot;&gt;&lt;span style=&quot;font-size: 12px;&quot;&gt;double phi = 3.14&lt;/span&gt;" style="shape=hexagon;perimeter=hexagonPerimeter2;whiteSpace=wrap;html=1;fixedSize=1;fontFamily=Times New Roman;fontSize=12;" vertex="1" parent="1">
          <mxGeometry x="150" y="170" width="120" height="80" as="geometry" />
        </mxCell>
        <mxCell id="inJxUU8ugUfXPObye8tp-11" value="" style="edgeStyle=orthogonalEdgeStyle;rounded=0;orthogonalLoop=1;jettySize=auto;html=1;fontFamily=Times New Roman;fontSize=12;" edge="1" parent="1" source="inJxUU8ugUfXPObye8tp-12">
          <mxGeometry relative="1" as="geometry">
            <mxPoint x="210" y="410" as="targetPoint" />
          </mxGeometry>
        </mxCell>
        <mxCell id="inJxUU8ugUfXPObye8tp-12" value="r" style="shape=parallelogram;perimeter=parallelogramPerimeter;whiteSpace=wrap;html=1;fixedSize=1;fontFamily=Times New Roman;fontSize=12;" vertex="1" parent="1">
          <mxGeometry x="150" y="300" width="120" height="60" as="geometry" />
        </mxCell>
        <mxCell id="inJxUU8ugUfXPObye8tp-18" value="A" style="ellipse;whiteSpace=wrap;html=1;aspect=fixed;align=center;" vertex="1" parent="1">
          <mxGeometry x="185" y="410" width="50" height="50" as="geometry" />
        </mxCell>
        <mxCell id="inJxUU8ugUfXPObye8tp-21" value="" style="edgeStyle=orthogonalEdgeStyle;rounded=0;orthogonalLoop=1;jettySize=auto;html=1;" edge="1" parent="1" source="inJxUU8ugUfXPObye8tp-19" target="CtBXvL98oYvKJmt0qFco-9">
          <mxGeometry relative="1" as="geometry" />
        </mxCell>
        <mxCell id="inJxUU8ugUfXPObye8tp-19" value="A" style="ellipse;whiteSpace=wrap;html=1;aspect=fixed;align=center;" vertex="1" parent="1">
          <mxGeometry x="475.5" y="80" width="50" height="50" as="geometry" />
        </mxCell>
      </root>
    </mxGraphModel>
  </diagram>
</mxfile>
